<svg id="visual" viewBox="0 0 1920 300" width="1920" height="300" xmlns="http://www.w3.org/2000/svg" xmlns:xlink="http://www.w3.org/1999/xlink" version="1.1"><rect x="0" y="0" width="1920" height="300" fill="#FFFFFF"></rect><path d="M0 86L18.8 87C37.7 88 75.3 90 113 105.7C150.7 121.3 188.3 150.7 226 166.5C263.7 182.3 301.3 184.7 339 178.2C376.7 171.7 414.3 156.3 452 157.3C489.7 158.3 527.3 175.7 565 184.2C602.7 192.7 640.3 192.3 678 176.7C715.7 161 753.3 130 791 121.2C828.7 112.3 866.3 125.7 903.8 142.8C941.3 160 978.7 181 1016.2 174.5C1053.7 168 1091.3 134 1129 126C1166.7 118 1204.3 136 1242 153.8C1279.7 171.7 1317.3 189.3 1355 191.8C1392.7 194.3 1430.3 181.7 1468 168.2C1505.7 154.7 1543.3 140.3 1581 146C1618.7 151.7 1656.3 177.3 1694 172.8C1731.7 168.3 1769.3 133.7 1807 128.3C1844.7 123 1882.3 147 1901.2 159L1920 171L1920 0L1901.2 0C1882.3 0 1844.7 0 1807 0C1769.3 0 1731.7 0 1694 0C1656.3 0 1618.7 0 1581 0C1543.3 0 1505.7 0 1468 0C1430.3 0 1392.7 0 1355 0C1317.3 0 1279.7 0 1242 0C1204.3 0 1166.7 0 1129 0C1091.3 0 1053.7 0 1016.2 0C978.7 0 941.3 0 903.8 0C866.3 0 828.7 0 791 0C753.3 0 715.7 0 678 0C640.3 0 602.7 0 565 0C527.3 0 489.7 0 452 0C414.3 0 376.7 0 339 0C301.3 0 263.7 0 226 0C188.3 0 150.7 0 113 0C75.3 0 37.7 0 18.8 0L0 0Z" fill="#abdcfd" stroke-linecap="round" stroke-linejoin="miter"></path></svg>