<svg id="visual" viewBox="0 0 1920 300" width="1920" height="300" xmlns="http://www.w3.org/2000/svg" xmlns:xlink="http://www.w3.org/1999/xlink" version="1.1"><rect x="0" y="0" width="1920" height="300" fill="#abdcfd"></rect><path d="M0 109L21.3 112.5C42.7 116 85.3 123 128 124.7C170.7 126.3 213.3 122.7 256 116.8C298.7 111 341.3 103 384 116.7C426.7 130.3 469.3 165.7 512 184.7C554.7 203.7 597.3 206.3 640 207.2C682.7 208 725.3 207 768 191.7C810.7 176.3 853.3 146.7 896 133.5C938.7 120.3 981.3 123.7 1024 119.7C1066.7 115.7 1109.3 104.3 1152 100.3C1194.7 96.3 1237.3 99.7 1280 116C1322.7 132.3 1365.3 161.7 1408 169.5C1450.7 177.3 1493.3 163.7 1536 161.7C1578.7 159.7 1621.3 169.3 1664 170.3C1706.7 171.3 1749.3 163.7 1792 153.8C1834.7 144 1877.3 132 1898.7 126L1920 120L1920 301L1898.7 301C1877.3 301 1834.7 301 1792 301C1749.3 301 1706.7 301 1664 301C1621.3 301 1578.7 301 1536 301C1493.3 301 1450.7 301 1408 301C1365.3 301 1322.7 301 1280 301C1237.3 301 1194.7 301 1152 301C1109.3 301 1066.7 301 1024 301C981.3 301 938.7 301 896 301C853.3 301 810.7 301 768 301C725.3 301 682.7 301 640 301C597.3 301 554.7 301 512 301C469.3 301 426.7 301 384 301C341.3 301 298.7 301 256 301C213.3 301 170.7 301 128 301C85.3 301 42.7 301 21.3 301L0 301Z" fill="#ffffff" stroke-linecap="round" stroke-linejoin="miter"></path></svg>