<svg id="visual" viewBox="0 0 1920 300" width="1920" height="300" xmlns="http://www.w3.org/2000/svg" xmlns:xlink="http://www.w3.org/1999/xlink" version="1.1"><rect x="0" y="0" width="1920" height="300" fill="#FFFFFF"></rect><path d="M0 96L21.3 99.8C42.7 103.7 85.3 111.3 128 122.7C170.7 134 213.3 149 256 143.5C298.7 138 341.3 112 384 121.2C426.7 130.3 469.3 174.7 512 172.8C554.7 171 597.3 123 640 120.3C682.7 117.7 725.3 160.3 768 181.5C810.7 202.7 853.3 202.3 896 181.8C938.7 161.3 981.3 120.7 1024 118.2C1066.7 115.7 1109.3 151.3 1152 155.5C1194.7 159.7 1237.3 132.3 1280 120.7C1322.7 109 1365.3 113 1408 130.8C1450.7 148.7 1493.3 180.3 1536 175C1578.7 169.7 1621.3 127.3 1664 111.2C1706.7 95 1749.3 105 1792 103.3C1834.7 101.7 1877.3 88.3 1898.7 81.7L1920 75L1920 301L1898.7 301C1877.3 301 1834.7 301 1792 301C1749.3 301 1706.7 301 1664 301C1621.3 301 1578.7 301 1536 301C1493.3 301 1450.7 301 1408 301C1365.3 301 1322.7 301 1280 301C1237.3 301 1194.7 301 1152 301C1109.3 301 1066.7 301 1024 301C981.3 301 938.7 301 896 301C853.3 301 810.7 301 768 301C725.3 301 682.7 301 640 301C597.3 301 554.7 301 512 301C469.3 301 426.7 301 384 301C341.3 301 298.7 301 256 301C213.3 301 170.7 301 128 301C85.3 301 42.7 301 21.3 301L0 301Z" fill="#abdcfd" stroke-linecap="round" stroke-linejoin="miter"></path></svg>