<svg id="visual" viewBox="0 0 1920 300" width="1920" height="300" xmlns="http://www.w3.org/2000/svg" xmlns:xlink="http://www.w3.org/1999/xlink" version="1.1"><rect x="0" y="0" width="1920" height="300" fill="#5093f8"></rect><path d="M0 95L21.3 95.3C42.7 95.7 85.3 96.3 128 96.2C170.7 96 213.3 95 256 95.5C298.7 96 341.3 98 384 100.5C426.7 103 469.3 106 512 117.7C554.7 129.3 597.3 149.7 640 168C682.7 186.3 725.3 202.7 768 187C810.7 171.3 853.3 123.7 896 122.7C938.7 121.7 981.3 167.3 1024 170.8C1066.7 174.3 1109.3 135.7 1152 114.7C1194.7 93.7 1237.3 90.3 1280 104.5C1322.7 118.7 1365.3 150.3 1408 167.5C1450.7 184.7 1493.3 187.3 1536 187.5C1578.7 187.7 1621.3 185.3 1664 168.7C1706.7 152 1749.3 121 1792 108.5C1834.7 96 1877.3 102 1898.7 105L1920 108L1920 0L1898.7 0C1877.3 0 1834.7 0 1792 0C1749.3 0 1706.7 0 1664 0C1621.3 0 1578.7 0 1536 0C1493.3 0 1450.7 0 1408 0C1365.3 0 1322.7 0 1280 0C1237.3 0 1194.7 0 1152 0C1109.3 0 1066.7 0 1024 0C981.3 0 938.7 0 896 0C853.3 0 810.7 0 768 0C725.3 0 682.7 0 640 0C597.3 0 554.7 0 512 0C469.3 0 426.7 0 384 0C341.3 0 298.7 0 256 0C213.3 0 170.7 0 128 0C85.3 0 42.7 0 21.3 0L0 0Z" fill="#ffffff" stroke-linecap="round" stroke-linejoin="miter"></path></svg>